<svg width="194" height="72" viewBox="0 0 194 72" fill="none" xmlns="http://www.w3.org/2000/svg">
<path d="M23.3368 3.06459C21.8862 3.07561 20.4332 3.22258 18.9826 3.22813C17.7711 3.23278 16.5625 3.129 15.351 3.12231C14.3967 3.11705 13.4235 2.98241 12.4899 3.18003C11.7499 3.33669 11.1823 3.72903 10.5647 4.1654C10.342 4.32273 10.0683 4.50419 10.0156 4.77146C9.93259 5.19232 10.3614 5.56367 10.4491 5.98358C11.0496 8.85925 10.688 11.7329 10.8427 14.6663C10.9103 15.9484 10.8879 17.236 11.0064 18.5144C11.0902 19.4175 11.2914 20.3065 11.3918 21.208C11.6215 23.2724 11.4003 25.4021 11.8831 27.4225C12.1638 28.5975 12.2018 29.9403 13.2606 30.7703C14.2745 31.565 18.9149 31.2747 21.7377 31.107C24.1859 30.9615 26.7097 30.8258 29.0011 29.9526C30.7129 29.3002 32.2582 28.1988 33.6249 26.98C34.2961 26.3814 35.0611 25.75 35.33 24.8924C35.9679 22.8579 35.7303 20.136 34.8387 18.5144C34.2532 17.4495 32.7047 16.8386 32.363 15.8785C32.9288 14.9821 35.0886 13.8529 35.7731 12.2517C36.0475 11.61 36.2563 10.6502 36.274 9.82747C36.3041 8.43602 36.2776 6.93143 35.6094 5.7101C35.0548 4.69655 34.0889 3.83757 33.0181 3.40129C31.5215 2.79156 29.7977 3.23502 28.1822 3.18003C26.5681 3.12508 24.9519 3.05231 23.3368 3.06459ZM25.668 7.85536C26.8593 7.85053 28.0446 7.89589 29.2226 8.067C30.2627 8.21808 31.6581 8.08295 32.2474 8.95205C32.6712 9.57707 32.3539 10.5185 32.0355 11.2031C31.6146 12.108 30.8155 12.8759 29.9355 13.3484C28.899 13.9049 27.6363 13.8654 26.4676 14.0026C23.6765 14.3301 20.858 14.4399 18.0482 14.3874C16.7228 14.3626 14.5417 14.7108 14.089 14.0603C13.5942 13.349 13.7283 12.0552 13.7037 11.0396C13.681 10.1025 13.5807 8.85894 13.9253 8.23054C14.1647 7.79392 15.3454 8.0556 16.0638 8.0189C17.2733 7.95713 18.4941 8.01542 19.7051 8.0189C21.6891 8.02463 23.6824 7.86342 25.668 7.85536ZM15.6496 18.6202C16.1656 18.6162 16.8421 18.6812 17.3354 18.6779C19.1703 18.6658 21.0018 18.6776 22.8359 18.7356C24.2133 18.7792 25.6145 18.7003 26.9685 18.9569C27.8806 19.1297 28.8102 19.3581 29.6079 19.8323C30.2773 20.2302 31.0113 20.7121 31.313 21.4292C31.6187 22.1558 31.6453 23.1052 31.2648 23.7957C30.627 24.9534 29.1973 25.519 27.9607 25.9891C26.9736 26.3643 25.8739 26.3582 24.8203 26.4316C21.7269 26.6474 15.8506 26.9864 15.5147 26.4316C15.2363 25.9717 15.2801 23.8282 15.1872 22.5259C15.0971 21.2626 14.4965 19.0694 14.9656 18.7356C15.0855 18.6504 15.34 18.6225 15.6496 18.6202Z" fill="black" stroke="black"/>
<path d="M51.7544 9.31761C51.0146 9.34338 50.2696 9.43338 49.5387 9.50039C49.037 9.5464 48.5149 9.58663 48.0456 9.76975C46.4098 10.4081 44.8779 11.3807 43.5951 12.5788C42.5015 13.6003 41.4941 14.8139 40.946 16.2056C40.4995 17.3393 40.5986 18.6171 40.5125 19.8323C40.3869 21.6057 40.0676 23.4147 40.3969 25.1618C40.6541 26.5262 41.1436 27.913 41.996 29.0098C43.0086 30.3126 44.4211 31.3722 45.9552 31.9824C47.8942 32.7536 50.1228 33.0563 52.1782 32.6943C53.7944 32.4097 55.2133 31.4075 56.5805 30.5009C58.4126 29.2861 60.4859 28.1099 61.5897 26.2104C62.2743 25.0324 62.3045 23.5597 62.3604 22.1988C62.4376 20.3205 62.3926 18.3586 61.7535 16.5904C61.1108 14.8121 60.0374 13.1233 58.6228 11.8669C57.3167 10.7069 55.6412 9.90541 53.9411 9.50039C53.2271 9.33032 52.4941 9.29185 51.7544 9.31761ZM49.7988 14.7378C51.3272 14.7906 52.8748 14.6424 54.3842 14.8876C54.7612 14.9489 55.1531 15.0214 55.4824 15.2147C56.4337 15.7732 57.2641 16.5909 57.8521 17.5235C58.4608 18.4889 58.9117 19.6253 58.9503 20.7654C58.9965 22.1313 58.6122 23.5618 57.9003 24.7289C57.2179 25.8476 56.187 26.8484 54.9814 27.3648C53.1732 28.1393 51.0402 28.1061 49.0956 27.8073C47.7284 27.5972 46.175 27.2885 45.2424 26.2681C44.3774 25.3216 44.3292 23.8517 44.1442 22.5836C43.9697 21.3873 43.8482 20.1291 44.1442 18.9569C44.4555 17.7243 45.0406 16.4836 45.9552 15.5995C46.4577 15.1137 47.1501 14.8137 47.8337 14.6663C48.4744 14.5282 49.1437 14.7152 49.7988 14.7378Z" fill="black" stroke="black"/>
<path d="M67.4811 22.6924C67.92 22.0936 68.6385 21.278 69.3526 21.483C70.2283 21.7344 70.06 23.1647 70.5086 23.9567C71.0098 24.8414 71.5234 25.7397 72.2151 26.4854C72.9784 27.3085 73.7752 28.2732 74.8573 28.5743C76.1223 28.9264 77.6374 28.7508 78.7656 28.0796C79.658 27.5487 80.2215 26.5237 80.5821 25.5509C81.1703 23.964 81.0324 22.1856 81.0224 20.4935C81.005 17.5107 80.4518 14.5549 80.1417 11.5881C79.9501 9.75463 79.6373 7.93162 79.5362 6.09095C79.493 5.30421 79.1214 4.39742 79.5362 3.72717C79.946 3.06494 80.8556 2.57724 81.628 2.68271C82.1428 2.75301 82.5298 3.27452 82.7839 3.72717C83.2678 4.58926 83.2019 5.66126 83.3344 6.64067C83.6941 9.30082 83.7205 11.9962 83.9949 14.6665C84.2555 17.201 84.8982 19.705 84.9307 22.2526C84.9573 24.3328 85.3043 26.6281 84.3252 28.4644C83.3083 30.3717 81.2801 31.6806 79.316 32.5873C77.8948 33.2433 76.2404 33.6444 74.6921 33.4118C73.3045 33.2034 72.1029 32.2853 70.949 31.4878C70.0944 30.8972 69.2429 30.2421 68.637 29.3989C68.019 28.5388 67.5714 27.525 67.371 26.4854C67.1315 25.2434 66.9148 23.4648 67.4811 22.6924Z" fill="black" stroke="black"/>
<path d="M103.426 3.68989C103.154 3.67927 102.878 3.6978 102.617 3.74761C100.258 4.19882 98.2834 6.06109 96.7217 7.88422C95.0053 9.88793 94.0202 12.4694 93.2249 14.9838C92.3724 17.679 92.1723 20.5481 91.9148 23.3628C91.7122 25.5767 91.1735 27.8775 91.7318 30.0295C91.9581 30.902 92.2744 32.0154 93.1093 32.3576C93.4075 32.4798 93.7814 32.2803 94.0533 32.1075C94.5513 31.791 94.9514 31.2943 95.1804 30.751C95.7495 29.4008 95.4918 27.8426 95.6235 26.3835C95.7772 24.6812 95.5343 21.6373 96.0281 21.2657C96.3498 21.0236 96.8039 21.0101 97.2034 20.9578C98.8243 20.7457 100.473 20.901 102.107 20.9578C104.342 21.0356 108.682 20.8981 108.802 21.4196C109.143 22.9094 108.969 25.7822 109.418 27.9035C109.734 29.3936 109.47 31.6136 110.863 32.2325C111.455 32.4955 112.254 31.9693 112.645 31.4533C113.3 30.5894 113.07 29.3234 113.088 28.2402C113.131 25.655 112.8 23.0597 112.289 20.5249C111.589 17.0514 110.416 13.7543 109.206 10.3469C108.445 8.20476 107.553 5.83504 105.719 4.48835C105.078 4.01763 104.243 3.72171 103.426 3.68989ZM102.376 9.01938C102.847 8.99405 103.331 9.10257 103.725 9.33684C104.526 9.81332 104.874 10.8072 105.382 11.5879C105.935 12.4381 106.504 13.2882 106.894 14.2238C107.173 14.8906 107.518 15.5884 107.472 16.3114C107.458 16.5297 106.129 16.4394 105.459 16.4845C104.414 16.5549 103.373 16.5712 102.328 16.6481C101.262 16.7265 100.172 16.7099 99.13 16.9463C98.6629 17.0522 98.2568 17.3889 97.7813 17.4465C97.5339 17.4765 96.9674 17.5982 97.0396 17.3599C97.6095 15.4784 98.3047 14.2645 99.0529 12.7712C99.5107 11.8576 99.8908 10.8746 100.565 10.1064C100.937 9.68349 101.369 9.22896 101.914 9.08672C102.062 9.04815 102.219 9.02783 102.376 9.01938Z" fill="black" stroke="black"/>
<path d="M123.683 2.62775C121.895 3.3621 120.217 4.46081 118.839 5.8161C118.096 6.54727 117.546 7.46874 117.078 8.39977C116.398 9.7513 115.856 11.1983 115.592 12.6875C115.226 14.7447 115.244 16.8786 115.481 18.9543C115.739 21.2062 116.144 23.5107 117.133 25.5509C117.879 27.0916 119.021 28.447 120.27 29.6188C121.561 30.8296 123.038 31.9096 124.674 32.5873C126.798 33.4671 129.147 33.8136 131.445 33.9066C133.419 33.9865 135.5 33.9785 137.335 33.2469C138.831 32.6504 139.911 31.314 141.188 30.3334C141.945 29.7526 143.109 29.4664 143.445 28.5743C143.892 27.3869 143.379 25.9263 142.729 24.8363C142.329 24.1649 141.345 23.1259 140.913 23.352C140.481 23.578 137.86 26.3289 135.959 27.2C134.104 28.0496 131.992 28.5767 129.959 28.4094C128.159 28.2614 126.463 27.3788 124.894 26.4854C123.59 25.7427 122.195 24.9356 121.371 23.6819C120.444 22.2696 120.203 20.4716 120.05 18.7894C119.889 17.0133 119.922 15.1478 120.491 13.4572C121.003 11.9344 121.899 10.4819 123.078 9.38926C124.39 8.17364 126.056 7.20516 127.812 6.86056C129.387 6.55152 131.101 6.78511 132.601 7.35531C134.038 7.90172 135.124 9.11327 136.344 10.0489C137.171 10.6835 137.93 11.4046 138.766 12.0279C139.21 12.3594 139.589 12.9996 140.142 12.9624C141.101 12.898 142.002 11.9548 142.289 11.0384C142.988 8.8054 142.127 8.42683 141.408 7.41028C140.422 6.01529 138.607 5.43956 137.115 4.60673C135.911 3.93511 134.673 3.30389 133.371 2.84764C132.036 2.37939 130.656 1.93466 129.243 1.85815C127.654 1.77214 126.079 2.20612 124.509 2.46284C124.232 2.50813 123.943 2.52117 123.683 2.62775Z" fill="black" stroke="black"/>
<path d="M122.582 5.8161C122.2 5.53088 121.637 6.0722 121.261 6.36582C120.776 6.74526 120.317 7.25451 120.16 7.85005C120.048 8.27873 119.923 8.98239 120.325 9.16936C121.059 9.51029 121.938 8.53834 122.362 7.85005C122.72 7.26923 123.129 6.22436 122.582 5.8161Z" fill="black" stroke="black"/>
<path d="M125.555 4.22192C125.346 4.45324 125.346 4.92511 125.555 5.15644C125.913 5.55315 126.636 5.46395 127.151 5.32135C127.682 5.17461 128.226 4.82354 128.472 4.33186C128.538 4.20075 128.582 3.98911 128.472 3.89209C128.14 3.59878 127.592 4.00672 127.151 4.05701C126.62 4.11763 125.913 3.8252 125.555 4.22192Z" fill="black" stroke="black"/>
<path d="M131.17 4.16695C130.859 4.199 130.377 4.297 130.344 4.60672C130.292 5.08493 130.999 5.35872 131.445 5.54124C131.904 5.72949 132.462 5.81381 132.931 5.65118C133.213 5.55339 133.639 5.34099 133.592 5.04649C133.528 4.64972 132.868 4.6908 132.491 4.55175C132.06 4.39324 131.626 4.11981 131.17 4.16695Z" fill="black" stroke="black"/>
<path d="M135.959 5.81609C135.72 5.82194 135.43 5.89275 135.298 6.09095C135.166 6.28915 135.19 6.59342 135.298 6.80558C135.597 7.38992 136.322 7.6377 136.894 7.95998C137.346 8.21409 137.852 8.77354 138.326 8.56467C138.628 8.43129 138.736 7.95065 138.656 7.63015C138.583 7.34076 138.207 7.23603 137.995 7.02547C137.765 6.79664 137.605 6.48998 137.335 6.31084C136.928 6.0418 136.446 5.80411 135.959 5.81609Z" fill="black" stroke="black"/>
<path d="M119.004 24.2866C118.568 24.8492 119.048 25.7844 119.445 26.3755C119.754 26.8356 120.302 27.1144 120.821 27.31C121.098 27.4143 121.526 27.6574 121.702 27.4199C122.156 26.8068 121.093 26.0205 120.766 25.331C120.59 24.9607 120.569 24.439 120.215 24.2316C119.867 24.0273 119.252 23.9675 119.004 24.2866Z" fill="black" stroke="black"/>
<path d="M124.674 28.5194C124.356 28.4822 123.95 28.4991 123.738 28.7392C123.507 29.0019 123.46 29.4767 123.628 29.7837C123.924 30.3227 124.683 30.4568 125.28 30.6083C125.796 30.7393 126.439 30.9667 126.876 30.6633C127.162 30.4649 127.286 30.0121 127.206 29.6738C127.129 29.3459 126.793 29.108 126.491 28.9591C126.109 28.7714 125.632 28.9185 125.225 28.7942C125.028 28.7343 124.878 28.5431 124.674 28.5194Z" fill="black" stroke="black"/>
<path d="M131.445 30.0036C131.063 30.0597 130.581 29.8073 130.289 30.0586C130.076 30.2414 129.983 30.6407 130.124 30.8831C130.328 31.234 130.88 31.1967 131.28 31.2679C131.858 31.3709 132.529 31.6094 133.041 31.3229C133.299 31.1786 133.473 30.8487 133.482 30.5533C133.49 30.2666 133.345 29.9277 133.096 29.7837C132.81 29.6179 132.432 29.7893 132.105 29.8387C131.881 29.8726 131.669 29.9706 131.445 30.0036Z" fill="black" stroke="black"/>
<path d="M137.335 28.1345C136.852 28.2779 136.398 28.5784 136.069 28.9591C135.897 29.1576 135.738 29.4114 135.738 29.6738C135.738 29.9361 135.855 30.2356 136.069 30.3884C136.354 30.5923 136.772 30.574 137.115 30.4983C137.428 30.4291 137.706 30.2231 137.94 30.0036C138.2 29.7599 138.412 29.4539 138.546 29.124C138.671 28.814 138.927 28.3897 138.711 28.1345C138.414 27.785 137.774 28.004 137.335 28.1345Z" fill="black" stroke="black"/>
<path d="M138.436 25.6608C138.708 26.6104 139.029 27.068 139.371 27.7498C139.692 28.3876 139.961 29.0697 140.417 29.6188C140.6 29.839 140.794 30.1311 141.078 30.1685C141.338 30.2028 141.689 30.0795 141.794 29.8387C141.932 29.5196 141.61 29.1644 141.463 28.8492C141.182 28.2452 140.695 27.751 140.417 27.1451C140.241 26.7604 140.209 26.32 140.032 25.9357C139.843 25.5246 139.769 24.7982 139.316 24.7813C139.067 24.772 139.059 25.216 138.876 25.386C138.749 25.5039 138.388 25.4947 138.436 25.6608Z" fill="black" stroke="black"/>
<path d="M138.05 11.3682C137.906 10.9393 138.508 10.5861 138.766 10.2138C138.937 9.96663 139.158 9.7549 139.316 9.49919C139.648 8.96226 139.837 8.34746 140.142 7.79507C140.31 7.49243 140.347 6.92834 140.693 6.91553C141.034 6.90291 141.062 7.49408 141.298 7.7401C141.379 7.82478 141.559 7.84358 141.573 7.95998C141.631 8.41443 141.018 8.68901 140.748 9.05942C140.523 9.36772 140.291 9.6716 140.087 9.99393C139.907 10.2783 139.758 10.5809 139.592 10.8735C139.373 11.259 139.374 12.0532 138.931 12.0279C138.792 12.0199 138.867 11.7399 138.766 11.6431C138.582 11.466 138.132 11.6101 138.05 11.3682Z" fill="black" stroke="black"/>
<path d="M146.781 4.78725C147.091 4.11118 147.697 3.60176 148.26 3.11581C148.782 2.66601 149.319 1.84328 149.992 1.98856C150.428 2.08264 150.577 2.69111 150.712 3.11581C151.118 4.389 150.844 5.78483 150.907 7.1195C150.983 8.74382 151.077 10.3675 151.127 11.9928C151.167 13.2888 151.24 14.637 151.192 15.8821C153.103 15.0343 154.724 14.3142 156.453 13.4554C157.935 12.7201 159.345 11.847 160.832 11.1232C162.459 10.3315 164.153 9.68598 165.795 8.92699C167.894 7.95698 169.998 6.99398 172.042 5.91451C173.168 5.32028 174.222 4.59662 175.351 4.00984C175.732 3.81184 176.114 3.32021 176.519 3.46564C177.032 3.65036 177.165 4.40058 177.219 4.94274C177.243 5.18197 177.056 5.40229 177.044 5.64241C177.025 6.03502 177.355 6.43965 177.219 6.80853C176.895 7.68765 175.861 8.10969 175.098 8.6549C173.573 9.74466 171.877 10.5749 170.232 11.473C167.781 12.8115 165.335 14.177 162.779 15.3018C160.335 16.3768 158.448 16.8583 155.266 18.0811C156.809 18.6146 157.206 19.0304 158.147 19.5582C159.871 20.5248 161.536 21.5918 163.207 22.6484C165.015 23.7926 166.891 24.8502 168.578 26.1662C169.664 27.0126 170.944 27.7632 171.614 28.9649C172.08 29.8008 172.501 30.8894 172.159 31.783C171.857 32.5733 170.981 33.2654 170.135 33.3184C166.927 33.5197 164.508 30.2061 161.786 28.4984C160.517 27.7022 158.821 26.7278 158.069 25.9718C156.863 24.7594 155.123 24.0805 153.768 22.9788C152.86 22.241 152.313 21.5491 151.218 20.5688C151.1 22.2527 150.94 22.8863 150.868 24.0505C150.781 25.4596 150.821 26.8738 150.771 28.2846C150.747 28.9523 151.009 29.7084 150.673 30.2865C150.287 30.9521 149.497 31.5111 148.727 31.5304C148.1 31.5461 147.449 31.1133 147.092 30.5975C146.809 30.1872 146.965 29.6073 146.859 29.1204C146.674 28.2789 146.273 27.4864 146.158 26.6326C145.842 24.276 146.214 21.8775 146.217 19.4998C146.221 16.1245 146.154 12.6646 146.158 9.37401C146.16 7.8311 146.138 6.19018 146.781 4.78725Z" fill="black" stroke="black"/>
<path d="M3.41223 40.4123C2.76028 40.417 2.26993 41.1548 1.97206 41.7339C1.84963 41.972 1.88876 42.2636 1.87474 42.5308C1.79327 44.0837 1.93435 45.6403 1.95259 47.1953C1.98627 50.0651 1.99185 52.9352 2.01098 55.8052C2.01757 56.7964 2.00022 57.788 2.03043 58.7788C2.0595 59.7321 2.13171 60.6836 2.18612 61.6358C2.23573 62.504 2.18586 63.3845 2.34182 64.2401C2.51452 65.1876 2.78366 66.1303 3.19813 66.9999C3.34892 67.3163 3.44355 67.7822 3.78199 67.8745C4.17103 67.9807 4.57071 67.6177 4.87184 67.3498C5.21586 67.0437 5.49297 66.6283 5.61139 66.1837C5.91017 65.0619 5.4893 63.865 5.4557 62.7047C5.44146 62.2125 5.45212 61.7198 5.43625 61.2276C5.41177 60.4691 5.25878 59.5293 5.31947 58.9537C6.87494 58.7708 9.06785 58.7584 10.9439 58.7399C12.008 58.7294 13.0721 58.831 14.1357 58.7982C15.1895 58.7657 16.3952 58.4375 17.2885 58.5455C17.3865 59.5006 17.3013 60.9817 17.3274 62.1994C17.3576 63.6121 17.2635 65.0375 17.4636 66.4363C17.5962 67.3634 17.3135 68.7633 18.1643 69.1573C18.7723 69.4389 19.4443 68.6925 19.9742 68.2827C20.1962 68.111 20.5505 67.9101 20.5191 67.6413C20.0327 63.4774 20.3017 59.5309 20.2467 55.4748C20.2094 52.7281 20.1419 49.9803 20.2077 47.2342C20.2432 45.7554 20.5715 44.2763 20.4413 42.8029C20.3733 42.0343 20.504 41.0487 19.9158 40.5484C19.6287 40.3042 19.131 40.3162 18.787 40.4706C18.2639 40.7055 17.9334 41.2933 17.7361 41.8311C17.4903 42.5009 17.6603 43.256 17.6388 43.969C17.586 45.7176 17.5849 47.4674 17.5609 49.2166C17.5397 50.7649 17.457 52.5557 17.5026 53.8616C14.7398 54.1998 13.6498 54.1187 11.7224 54.2309C9.50446 54.36 6.65477 54.5087 5.06647 54.5807C4.55961 51.1715 5.16352 46.6831 4.75509 42.764C4.70661 42.2989 4.73129 41.7919 4.50208 41.3841C4.26369 40.96 3.89923 40.4089 3.41223 40.4123Z" fill="black" stroke="black"/>
<path d="M32.1992 40.0775C31.4608 40.0923 30.741 39.9661 30.0895 40.3133C29.192 40.7917 28.3772 41.4386 27.6812 42.1796C26.9526 42.9555 26.4052 43.8944 25.8895 44.8251C25.2989 45.8911 24.7439 46.99 24.4156 48.1633C24.0354 49.5223 23.984 50.9611 23.8665 52.3672C23.6939 54.4346 23.6123 56.5073 23.6354 58.5818C23.6546 60.321 23.4324 62.1331 23.9436 63.7958C24.5549 65.7841 25.6122 67.7322 27.1322 69.1542C28.3009 70.2476 29.8301 71.1368 31.4189 71.3379C33.0803 71.5483 34.8394 71.0188 36.3221 70.2413C37.6389 69.5508 38.7581 68.4436 39.5877 67.2109C40.2841 66.1764 40.4703 64.8829 40.9171 63.7189C41.2759 62.7842 41.7764 61.8939 42.0057 60.9195C42.3334 59.5263 42.3663 58.0695 42.391 56.6385C42.4227 54.796 42.3235 52.9437 42.0827 51.1166C41.9167 49.8569 41.6719 48.6095 41.3024 47.3937C40.8799 46.003 40.5032 44.5315 39.6648 43.3437C39.1247 42.5785 38.3581 41.9761 37.5648 41.4774C36.8266 41.0133 35.979 40.7573 35.1565 40.4673C34.1885 40.1259 33.2255 40.057 32.1992 40.0775ZM32.1125 44.7963C32.5355 44.7975 32.9597 44.8355 33.3648 44.9021C34.1785 45.0359 34.9399 45.4449 35.6189 45.9122C36.5254 46.5361 37.4014 47.2927 37.9598 48.2403C38.6304 49.3784 38.9008 50.7374 39.0483 52.0498C39.2599 53.9325 39.011 55.8505 38.74 57.7256C38.4659 59.6231 38.2959 61.6233 37.4107 63.3245C36.9784 64.1551 36.3618 64.9679 35.5419 65.4216C34.1836 66.1733 32.4696 66.5048 30.9469 66.2008C29.5632 65.9246 28.1975 65.0933 27.373 63.9498C26.6706 62.9755 26.6288 61.6432 26.5156 60.4481C26.4203 59.4406 26.6094 58.4279 26.6698 57.4178C26.738 56.2769 26.8051 55.1319 26.901 53.993C27.0102 52.6955 27.0129 51.3777 27.2959 50.1065C27.5168 49.1145 27.792 48.1064 28.3074 47.2301C28.7636 46.4545 29.2867 45.6179 30.0895 45.2099C30.6993 44.9 31.4074 44.7944 32.1125 44.7963Z" fill="black" stroke="black"/>
<path d="M55.0764 40.9826C54.1813 40.9791 53.2743 41.045 52.3888 41.1173C51.1962 41.2147 50.1704 41.9113 49.0379 41.5255C48.8037 41.4457 48.7931 40.9887 48.5466 40.9675C47.873 40.9096 47.1748 41.6084 46.9668 42.2374C46.6688 43.1383 47.2528 46.0846 47.2847 48.0094C47.3228 50.316 47.1114 52.6193 47.1305 54.9262C47.1581 58.2456 47.2792 61.5622 47.5158 64.8733C47.6441 66.668 47.2355 68.1725 48.0746 70.2413C48.2236 70.6087 48.8622 70.4458 49.2209 70.3182C49.7603 70.1263 50.2202 69.6623 50.4828 69.1542C50.9154 68.3174 50.7866 67.2854 50.8393 66.3452C50.9379 64.5856 50.8374 62.8245 50.7622 61.0638C50.7235 60.1585 50.6957 59.3325 50.5695 58.3509C52.0456 58.344 52.9823 59.8675 54.153 60.679C55.769 61.799 57.3988 62.9139 58.9022 64.1806C60.3609 65.4098 61.3523 67.2263 63.0251 68.1441C63.8911 68.6192 64.9461 69.083 65.9054 68.8464C66.4766 68.7055 67.1129 68.259 67.2252 67.6823C67.4831 66.3573 66.2149 65.143 65.4141 64.0556C64.3749 62.6443 62.8839 61.623 61.6187 60.4096C60.5192 59.3551 59.252 58.1613 58.3242 57.2542C60.2342 56.5237 63.1325 54.9763 64.393 52.8098C65.2427 51.3493 65.3321 49.4286 64.971 47.7785C64.5795 45.9892 63.3065 44.5867 61.9545 43.3492C60.7946 42.2875 59.243 41.6496 57.7159 41.2712C56.8537 41.0576 55.9716 40.9862 55.0764 40.9826ZM49.6737 45.0079C50.2511 45.0748 51.0333 45.1786 51.7159 45.2484C52.4364 45.3222 53.1706 45.3118 53.8833 45.4408C54.7025 45.5892 55.5007 45.8548 56.2916 46.1142C57.1182 46.3854 57.9552 46.6401 58.7288 47.0378C59.572 47.4713 60.4912 47.8879 61.0985 48.6154C61.4248 49.0063 61.8403 49.5196 61.7054 50.0103C61.4225 51.0397 60.0679 51.4336 59.1045 51.8959C58.1808 52.339 57.1384 52.485 56.1375 52.704C55.3109 52.8847 54.477 53.06 53.6329 53.1176C52.5495 53.1915 50.5635 53.222 50.3769 53.031C50.0396 52.686 50.0867 52.1042 50.0205 51.6265C49.8885 50.675 50.0006 49.7095 49.953 48.7501C49.8911 47.5023 49.5939 45.7999 49.6737 45.0079Z" fill="black" stroke="black"/>
<path d="M90.5037 43.4248C90.2791 42.8527 89.6662 42.5015 89.1413 42.1809C88.3498 41.6975 87.4414 41.4002 86.5335 41.2092C85.4398 40.9791 84.3032 40.9811 83.186 41.0148C82.089 41.0479 80.9636 41.0752 79.9165 41.4035C78.6538 41.7994 77.5186 42.5425 76.4133 43.2693C75.6501 43.7713 74.9174 44.333 74.2725 44.9796C73.5948 45.6593 72.9177 46.3793 72.4821 47.2341C72.1523 47.8813 71.9466 48.6086 71.8982 49.3332C71.8415 50.1815 71.9193 51.0757 72.2485 51.8598C72.6349 52.7799 73.2132 53.7311 74.0779 54.2309C74.9959 54.7614 76.181 54.5073 77.2307 54.6585C78.7636 54.8791 80.3064 55.0481 81.8237 55.3581C83.097 55.6183 84.4035 55.8216 85.5993 56.3299C86.4408 56.6876 87.2206 57.1975 87.9347 57.7681C88.5436 58.2547 89.1893 58.7596 89.5695 59.4396C89.8303 59.906 89.9838 60.4608 89.9587 60.9944C89.9131 61.9686 89.6317 63.0228 88.9856 63.7542C88.4675 64.3409 87.6487 64.6351 86.8838 64.8037C86.0092 64.9966 85.0874 64.8312 84.198 64.726C83.1317 64.5998 82.0613 64.4122 81.0452 64.0652C80.0899 63.7389 79.2263 63.1893 78.3206 62.7436C77.7221 62.449 77.1466 62.1046 76.5301 61.8496C75.9615 61.6144 75.386 61.3649 74.7785 61.2665C74.3815 61.2022 73.8902 61.0209 73.5719 61.2665C73.0838 61.6431 73.0717 62.4395 73.1048 63.0546C73.148 63.8571 73.5207 64.6363 73.9611 65.3091C74.4582 66.0683 75.1543 66.7064 75.9073 67.2137C76.7406 67.7751 77.7103 68.1232 78.6709 68.4187C79.9452 68.8107 81.2813 68.9752 82.6022 69.1573C83.6215 69.2978 84.6485 69.4556 85.6771 69.4294C86.4237 69.4103 87.1982 69.3847 87.8958 69.1184C89.0924 68.6616 90.1312 67.8318 91.0875 66.9805C91.7746 66.3689 92.5205 65.7284 92.878 64.8815C93.4246 63.5865 93.3385 62.087 93.2672 60.6834C93.199 59.3384 92.9104 57.9979 92.4888 56.7186C92.2329 55.9424 91.9391 55.149 91.4378 54.503C90.9413 53.863 90.2268 53.422 89.5695 52.9481C88.7522 52.3589 87.9498 51.6934 87.0005 51.3544C86.064 51.0201 85.028 51.0984 84.0424 50.9657C82.9131 50.8138 81.7885 50.625 80.656 50.4993C79.7372 50.3973 78.7917 50.48 77.8924 50.2661C77.0487 50.0654 75.8766 50.0642 75.4792 49.2943C75.3263 48.9982 75.5298 48.6011 75.7127 48.3225C76.3629 47.3321 77.4725 46.6701 78.5541 46.1846C79.87 45.5939 81.3575 45.4293 82.7968 45.3295C84.5085 45.2108 86.2204 45.7121 87.9347 45.6404C88.7468 45.6065 89.791 45.8818 90.348 45.2906C90.7762 44.8361 90.7317 44.0059 90.5037 43.4248Z" fill="black" stroke="black"/>
<path d="M100.312 41.4424C100.024 41.2329 100.072 40.6414 99.7286 40.5484C99.3085 40.4347 98.8281 40.7885 98.5609 41.1314C98.0857 41.7412 98.162 42.6292 98.0646 43.3957C97.9653 44.1771 98.0107 44.9701 97.977 45.7571C97.8594 48.5053 97.661 51.2502 97.5772 53.9996C97.5456 55.0358 97.5088 56.0731 97.5383 57.1093C97.5755 58.4197 97.7051 59.7261 97.8107 61.0328C97.9063 62.2149 97.9332 63.4073 98.1374 64.5756C98.3429 65.7504 98.2902 67.1083 99.0374 68.0386C99.4444 68.5454 100.064 68.9103 100.775 68.926C101.902 68.9508 105.449 68.8198 107.787 68.8549C109.555 68.8815 112.059 69.0847 113.089 69.0681C113.606 69.0598 113.931 68.4612 114.393 68.2283C114.712 68.0675 115.179 68.1325 115.395 67.8487C115.995 67.062 115.992 65.831 115.671 64.8956C115.553 64.5519 115.276 64.3353 114.925 64.1002C114.173 63.5959 110.969 64.2131 108.992 64.1429C107.002 64.0723 105.028 63.7138 103.037 63.6765C102.401 63.6646 101.609 64.1728 101.13 63.7542C100.908 62.3572 100.9 59.0058 100.794 57.7481C102.332 57.608 103.914 57.7384 105.475 57.7466C107.257 57.7559 109.083 58.1994 110.821 57.8043C111.46 57.6589 112.299 57.524 112.585 56.9347C112.821 56.4486 112.398 55.8686 112.247 55.3499C112.124 54.9274 112.092 54.4306 111.787 54.1124C111.336 53.6399 110.621 53.4819 109.982 53.3464C108.446 53.0209 106.842 53.2681 105.272 53.2686C103.777 53.2692 102.081 53.3112 100.788 53.3456C100.524 53.2121 100.775 51.9111 100.773 51.1939C100.769 49.861 100.761 48.5281 100.78 47.1954C100.786 46.6899 100.675 46.0833 100.818 45.6794C102.809 45.8687 106.112 46.7356 108.798 46.9233C109.652 46.983 110.525 47.0398 111.367 46.8844C112.073 46.754 112.959 46.7192 113.391 46.1458C113.844 45.5437 113.65 44.6376 113.546 43.8913C113.494 43.5097 113.426 43.0797 113.157 42.803C112.837 42.4728 112.32 42.4074 111.873 42.2976C111.049 42.0952 110.19 42.0619 109.343 42.0255C108.137 41.9739 106.93 42.122 105.723 42.1033C104.489 42.0841 103.244 42.1045 102.025 41.9089C101.441 41.8151 100.791 41.7903 100.312 41.4424Z" fill="black" stroke="black"/>
<path d="M122.453 67.7116C120.926 66.7924 121.631 64.2262 121.534 62.4478C121.414 60.2518 121.774 58.0553 121.954 55.8635C122.181 53.095 122.216 50.2904 122.787 47.5718C123.086 46.1496 123.267 44.5918 124.134 43.4248C124.599 42.7988 125.279 42.0168 126.056 42.0899C127.037 42.1821 127.489 43.4471 128.126 44.1983C129.143 45.3985 129.991 46.7325 130.906 48.0116C131.55 48.9109 132.21 49.7999 132.815 50.7262C133.262 51.4114 133.604 52.4685 134.084 52.8268C134.526 51.2719 135.818 48.9653 136.842 47.1156C137.308 46.2727 137.761 45.4073 138.38 44.6687C139.055 43.8628 139.783 43.0365 140.714 42.5477C141.374 42.2016 142.213 41.7295 142.89 42.0396C143.489 42.3141 143.614 43.1605 143.805 43.7907C144.322 45.4943 144.203 47.3283 144.374 49.0999C144.525 50.6729 144.69 52.2455 144.777 53.8233C144.881 55.6932 144.846 57.5683 144.919 59.4396C144.976 60.9176 145.069 62.3941 145.152 63.8708C145.228 65.2019 145.642 67.3292 145.395 67.8631C145.241 68.1945 144.919 68.4271 144.626 68.6445C144.148 68.9974 143.577 69.8018 143.046 69.4674C142.425 69.0761 142.468 66.7064 142.318 65.3063C142.059 62.87 142.131 60.4097 142.029 57.9617C141.933 55.6554 141.917 53.344 141.727 51.0435C141.604 49.5532 141.76 47.2504 141.187 46.5903C140.392 46.992 139.985 48.5919 139.469 49.6371C138.696 51.2002 138.198 52.8896 137.411 54.4452C136.729 55.7935 136.424 57.6031 135.11 58.3512C134.633 58.6229 133.962 58.5744 133.462 58.3465C132.462 57.8904 131.969 56.731 131.296 55.8635C130.369 54.6705 129.629 53.3427 128.727 52.1319C128.182 51.401 127.614 50.6863 127.011 50.0023C126.616 49.5541 125.788 48.5098 125.768 48.7112C125.695 49.45 125.378 53.2457 125.219 55.5156C125.059 57.7916 125.064 60.0806 124.812 62.3482C124.661 63.7005 124.673 65.1195 124.152 66.3766C123.991 66.7646 123.755 67.1521 123.416 67.3998C123.143 67.5984 122.742 67.8854 122.453 67.7116Z" fill="black" stroke="black"/>
<path d="M157.94 41.8237C157.469 41.8942 156.593 42.6531 156.283 42.9108C155.953 43.1856 154.798 44.9145 154.578 45.3542C154.358 45.794 153.615 48.0479 153.229 48.8175C152.844 49.5871 151.923 51.6774 151.813 52.5019C151.703 53.3265 151.237 55.0691 151.072 55.6188C150.906 56.1685 150.048 60.3203 149.993 61.0349C149.938 61.7495 149.819 64.9791 149.819 65.7487C149.819 66.5183 149.855 69.0223 150.185 69.462C150.571 69.572 152.193 68.3695 152.468 67.4899C152.744 66.6104 152.805 63.9443 152.805 63.0647C152.805 62.1852 153.193 58.9105 153.364 58.7357C153.623 58.4714 154.699 58.8319 155.58 58.8319C156.461 58.8319 157.015 58.9157 158.171 58.8607C159.327 58.8058 161.936 58.7862 161.986 58.9473C162.056 59.1741 162.042 60.7268 162.092 61.4293C162.162 62.4278 162.203 63.5182 162.313 64.5077C162.423 65.4972 162.748 67.5463 162.968 68.4808C163.189 69.4153 163.881 69.6269 164.211 69.462C164.541 69.2971 164.691 69.0896 165.242 68.7598C165.792 68.4299 165.419 67.3429 165.309 66.5183C165.199 65.6937 164.887 63.69 164.722 62.5356C164.556 61.3812 164.449 59.2799 164.394 59.005C164.339 58.7302 164.51 58.9317 164.683 58.6299C165.013 58.0527 164.773 56.8859 164.828 56.0613C164.883 55.2367 164.445 55.2354 164.115 55.0705C163.784 54.9055 163.87 53.4172 163.595 52.4827C163.319 51.5481 162.575 48.2306 162.217 47.461C161.889 46.7559 160.453 44.127 159.847 43.2474C159.242 42.3679 158.75 41.8683 158.036 41.8237C158.009 41.8218 157.971 41.819 157.94 41.8237ZM157.458 46.9608C157.477 46.9538 157.492 46.955 157.506 46.9608C157.794 47.0757 158.25 47.7454 158.528 48.2018C158.977 48.9424 159.214 49.7886 159.549 50.5875C159.92 51.4742 160.339 52.3416 160.647 53.2523C160.784 53.6565 161.089 54.1861 160.974 54.4933C160.924 54.6287 160.026 54.551 159.549 54.551C158.594 54.551 157.64 54.4991 156.688 54.4355C155.915 54.384 154.349 54.4557 154.376 54.2143C154.406 53.9442 154.641 53.1519 154.809 52.627C155.167 51.5119 155.506 50.3786 156.023 49.3273C156.408 48.5442 157.172 47.0652 157.458 46.9608Z" fill="black" stroke="black"/>
<path d="M172.069 69.803C171.705 69.6244 171.476 69.2171 171.326 68.841C170.997 68.0199 171.089 67.0859 171.051 66.2024C170.981 64.5912 171.039 62.9749 171.133 61.3649C171.219 59.885 171.429 58.415 171.573 56.9397C171.667 55.987 171.737 55.0319 171.849 54.0812C172.044 52.4185 172.244 50.7545 172.537 49.1062C172.778 47.7491 173.122 46.4123 173.418 45.0658C173.518 44.6076 173.45 44.075 173.72 43.6915C174.138 43.0992 174.844 42.4507 175.564 42.5371C176.035 42.5935 176.262 43.183 176.555 43.5541C177.054 44.1842 177.472 44.8783 177.849 45.588C178.443 46.7085 178.807 47.9385 179.363 49.0787C179.901 50.1847 180.484 51.2713 181.124 52.3221C181.787 53.4098 182.585 54.4099 183.271 55.4829C183.875 56.4285 184.394 57.4273 185.005 58.3689C185.528 59.1753 186.089 59.957 186.656 60.7327C187.235 61.5243 187.764 62.3634 188.445 63.069C188.726 63.3594 189.012 64.0022 189.381 63.8386C189.589 61.9185 189.733 60.8555 189.849 59.3584C189.947 58.0871 189.999 56.8123 190.041 55.5379C190.116 53.2942 190.039 51.046 190.152 48.8039C190.201 47.8213 189.979 46.7527 190.399 45.8629C190.629 45.3765 191.127 45.0617 191.555 44.736C191.758 44.5818 191.963 44.3185 192.216 44.3512C192.602 44.4011 192.863 44.8301 193.042 45.1757C193.322 45.7208 193.299 46.3784 193.344 46.9898C193.454 48.4794 193.303 49.9769 193.262 51.47C193.221 52.9455 193.181 54.4215 193.097 55.8952C193.015 57.3264 192.834 58.7511 192.766 60.183C192.718 61.2081 192.705 62.2351 192.711 63.2614C192.717 64.1688 192.795 65.0751 192.794 65.9825C192.793 66.8442 192.758 68.2889 192.711 68.5662C192.612 69.1604 192.05 69.5127 191.583 69.8305C191.122 70.1438 190.557 70.5316 190.014 70.4077C188.856 70.1439 188.316 68.7459 187.537 67.8515C186.696 66.8867 185.908 65.8739 185.17 64.8281C184.438 63.7912 183.897 62.6252 183.133 61.6123C182.594 60.897 181.877 60.3261 181.344 59.6058C180.503 58.4683 179.84 57.2083 179.142 55.9777C178.677 55.1574 178.247 54.3178 177.821 53.4765C177.546 52.9315 177.28 52.3813 177.023 51.8273C176.652 51.0271 176.323 49.7642 175.95 49.4086C175.592 49.8337 175.258 51.7906 175.041 53.0092C174.857 54.0432 174.784 55.0949 174.711 56.1426C174.655 56.9474 174.652 57.755 174.629 58.5613C174.606 59.34 174.598 60.119 174.574 60.8976C174.551 61.6124 174.5 62.3264 174.491 63.0415C174.482 63.7378 174.514 64.4341 174.518 65.1304C174.522 65.6893 174.621 66.2577 174.518 66.8071C174.383 67.5313 174.117 68.2472 173.72 68.8685C173.542 69.1472 173.32 69.4204 173.032 69.5831C172.746 69.7451 172.396 69.7661 172.069 69.803C172.069 69.803 172.069 69.803 172.069 69.803Z" fill="black"/>
<path d="M172.069 69.803C171.705 69.6244 171.476 69.2171 171.326 68.841C170.997 68.0199 171.089 67.0859 171.051 66.2024C170.981 64.5912 171.039 62.9749 171.133 61.3649C171.219 59.885 171.429 58.415 171.573 56.9397C171.667 55.987 171.737 55.0319 171.849 54.0812C172.044 52.4185 172.244 50.7545 172.537 49.1062C172.778 47.7491 173.122 46.4123 173.418 45.0658C173.518 44.6076 173.45 44.075 173.72 43.6915C174.138 43.0992 174.844 42.4507 175.564 42.5371C176.035 42.5935 176.262 43.183 176.555 43.5541C177.054 44.1842 177.472 44.8783 177.849 45.588C178.443 46.7085 178.807 47.9385 179.363 49.0787C179.901 50.1847 180.484 51.2713 181.124 52.3221C181.787 53.4098 182.585 54.4099 183.271 55.4829C183.875 56.4285 184.394 57.4273 185.005 58.3689C185.528 59.1753 186.089 59.957 186.656 60.7327C187.235 61.5243 187.764 62.3634 188.445 63.069C188.726 63.3594 189.012 64.0022 189.381 63.8386C189.589 61.9185 189.733 60.8555 189.849 59.3584C189.947 58.0871 189.999 56.8123 190.041 55.5379C190.116 53.2942 190.039 51.046 190.152 48.8039C190.201 47.8213 189.979 46.7527 190.399 45.8629C190.629 45.3765 191.127 45.0617 191.555 44.736C191.758 44.5818 191.963 44.3185 192.216 44.3512C192.602 44.4011 192.863 44.8301 193.042 45.1757C193.322 45.7208 193.299 46.3784 193.344 46.9898C193.454 48.4794 193.303 49.9769 193.262 51.47C193.221 52.9455 193.181 54.4215 193.097 55.8952C193.015 57.3264 192.834 58.7511 192.766 60.183C192.718 61.2081 192.705 62.2351 192.711 63.2614C192.717 64.1688 192.795 65.0751 192.794 65.9825C192.793 66.8442 192.758 68.2889 192.711 68.5662C192.612 69.1604 192.05 69.5127 191.583 69.8305C191.122 70.1438 190.557 70.5316 190.014 70.4077C188.856 70.1439 188.316 68.7459 187.537 67.8515C186.696 66.8866 185.908 65.8739 185.17 64.8281C184.438 63.7912 183.897 62.6252 183.133 61.6123C182.594 60.897 181.877 60.3261 181.344 59.6058C180.503 58.4683 179.84 57.2083 179.142 55.9777C178.677 55.1574 178.247 54.3178 177.821 53.4765C177.546 52.9315 177.28 52.3813 177.023 51.8273C176.652 51.0271 176.323 49.7642 175.95 49.4086C175.592 49.8337 175.258 51.7906 175.041 53.0092C174.857 54.0432 174.784 55.0949 174.711 56.1426C174.655 56.9474 174.652 57.755 174.629 58.5613C174.606 59.34 174.598 60.119 174.574 60.8976C174.551 61.6124 174.5 62.3264 174.491 63.0415C174.482 63.7378 174.514 64.4341 174.518 65.1304C174.522 65.6893 174.621 66.2577 174.518 66.8071C174.383 67.5313 174.117 68.2472 173.72 68.8685C173.542 69.1472 173.32 69.4204 173.032 69.5831C172.746 69.7451 172.396 69.7661 172.069 69.803ZM172.069 69.803C172.069 69.803 172.069 69.803 172.069 69.803Z" stroke="black"/>
<path d="M22.1038 1.83322C20.6532 1.84424 19.2002 1.99121 17.7496 1.99676C16.538 2.00141 15.3295 1.89764 14.1179 1.89094C13.1636 1.88568 12.1905 1.75104 11.2569 1.94866C10.5168 2.10532 9.94926 2.49767 9.33167 2.93403C9.10899 3.09136 8.83531 3.27282 8.78258 3.54009C8.69956 3.96095 9.12838 4.3323 9.21607 4.75221C9.81659 7.62788 9.45493 10.5015 9.60965 13.435C9.67728 14.717 9.65484 16.0046 9.77342 17.283C9.85718 18.1861 10.0584 19.0752 10.1587 19.9766C10.3885 22.041 10.1673 24.1707 10.65 26.1911C10.9308 27.3661 10.9688 28.709 12.0276 29.5389C13.0414 30.3337 17.6818 30.0433 20.5047 29.8756C22.9528 29.7302 25.4767 29.5944 27.768 28.7212C29.4799 28.0688 31.0252 26.9674 32.3919 25.7486C33.0631 25.1501 33.8281 24.5186 34.097 23.6611C34.7349 21.6265 34.4973 18.9046 33.6057 17.283C33.0202 16.2181 31.4716 15.6073 31.13 14.6471C31.6958 13.7507 33.8556 12.6216 34.5401 11.0203C34.8144 10.3786 35.0232 9.41885 35.041 8.5961C35.071 7.20465 35.0446 5.70006 34.3763 4.47873C33.8218 3.46518 32.8559 2.6062 31.785 2.16992C30.2884 1.56019 28.5646 2.00365 26.9492 1.94866C25.335 1.89371 23.7188 1.82094 22.1038 1.83322ZM24.435 6.62399C25.6263 6.61916 26.8116 6.66452 27.9896 6.83563C29.0297 6.98671 30.4251 6.85158 31.0144 7.72068C31.4382 8.34571 31.1209 9.28717 30.8025 9.97176C30.3816 10.8767 29.5824 11.6446 28.7024 12.117C27.666 12.6735 26.4032 12.634 25.2345 12.7712C22.4434 13.0987 19.625 13.2085 16.8152 13.156C15.4897 13.1312 13.3086 13.4794 12.856 12.8289C12.3611 12.1177 12.4953 10.8239 12.4707 9.80822C12.448 8.87111 12.3477 7.62757 12.6922 6.99918C12.9316 6.56255 14.1124 6.82423 14.8308 6.78753C16.0402 6.72576 17.2611 6.78406 18.4721 6.78753C20.4561 6.79326 22.4494 6.63205 24.435 6.62399ZM14.4166 17.3888C14.9326 17.3849 15.6091 17.4498 16.1024 17.4465C17.9373 17.4344 19.7688 17.4463 21.6028 17.5042C22.9803 17.5478 24.3815 17.4689 25.7354 17.7255C26.6476 17.8983 27.5772 18.1267 28.3749 18.6009C29.0442 18.9988 29.7783 19.4807 30.08 20.1979C30.3857 20.9245 30.4123 21.8739 30.0318 22.5644C29.3939 23.7221 27.9642 24.2877 26.7277 24.7577C25.7406 25.133 24.6408 25.1268 23.5873 25.2003C20.4939 25.416 14.6176 25.755 14.2817 25.2003C14.0032 24.7403 14.0471 22.5969 13.9542 21.2945C13.8641 20.0313 13.2635 17.838 13.7326 17.5042C13.8524 17.419 14.107 17.3912 14.4166 17.3888Z" fill="white" stroke="black"/>
<path d="M50.5213 8.08624C49.7816 8.11201 49.0366 8.20201 48.3057 8.26902C47.804 8.31503 47.2819 8.35526 46.8126 8.53838C45.1767 9.17674 43.6448 10.1494 42.3621 11.3474C41.2685 12.3689 40.2611 13.5826 39.713 14.9742C39.2665 16.1079 39.3656 17.3857 39.2795 18.6009C39.1539 20.3743 38.8346 22.1833 39.1639 23.9304C39.4211 25.2949 39.9106 26.6817 40.763 27.7784C41.7755 29.0812 43.188 30.1408 44.7222 30.751C46.6612 31.5222 48.8898 31.8249 50.9452 31.4629C52.5614 31.1783 53.9803 30.1761 55.3475 29.2696C57.1796 28.0547 59.2529 26.8785 60.3567 24.979C61.0413 23.801 61.0714 22.3283 61.1274 20.9675C61.2046 19.0892 61.1595 17.1272 60.5205 15.359C59.8778 13.5807 58.8043 11.892 57.3897 10.6356C56.0837 9.47556 54.4082 8.67404 52.708 8.26902C51.9941 8.09895 51.261 8.06048 50.5213 8.08624ZM48.5658 13.5064C50.0942 13.5592 51.6417 13.411 53.1512 13.6562C53.5282 13.7175 53.92 13.79 54.2493 13.9833C55.2007 14.5418 56.031 15.3595 56.6191 16.2921C57.2278 17.2575 57.6787 18.3939 57.7172 19.5341C57.7635 20.8999 57.3792 22.3304 56.6672 23.4975C55.9848 24.6163 54.954 25.6171 53.7484 26.1334C51.9402 26.9079 49.8072 26.8748 47.8626 26.5759C46.4953 26.3658 44.9419 26.0571 44.0094 25.0367C43.1443 24.0903 43.0961 22.6203 42.9112 21.3523C42.7367 20.156 42.6151 18.8977 42.9112 17.7255C43.2225 16.4929 43.8076 15.2522 44.7222 14.3681C45.2247 13.8824 45.9171 13.5823 46.6007 13.435C47.2414 13.2969 47.9107 13.4838 48.5658 13.5064Z" fill="white" stroke="black"/>
<path d="M66.248 21.461C66.687 20.8623 67.4055 20.0466 68.1196 20.2516C68.9953 20.503 68.8269 21.9334 69.2756 22.7254C69.7767 23.61 70.2904 24.5083 70.982 25.254C71.7453 26.0771 72.5421 27.0418 73.6242 27.343C74.8892 27.695 76.4044 27.5194 77.5325 26.8482C78.4249 26.3173 78.9884 25.2924 79.349 24.3195C79.9373 22.7326 79.7993 20.9543 79.7894 19.2621C79.7719 16.2793 79.2188 13.3235 78.9087 10.3567C78.717 8.52326 78.4042 6.70025 78.3032 4.85958C78.26 4.07284 77.8884 3.16605 78.3032 2.4958C78.713 1.83358 79.6226 1.34587 80.3949 1.45134C80.9098 1.52164 81.2968 2.04315 81.5509 2.4958C82.0348 3.35789 81.9689 4.42989 82.1014 5.4093C82.4611 8.06945 82.4874 10.7649 82.7619 13.4352C83.0224 15.9696 83.6651 18.4736 83.6977 21.0212C83.7243 23.1014 84.0712 25.3967 83.0922 27.233C82.0753 29.1403 80.047 30.4492 78.083 31.3559C76.6618 32.012 75.0074 32.4131 73.4591 32.1805C72.0714 31.972 70.8699 31.054 69.716 30.2565C68.8614 29.6658 68.0099 29.0108 67.404 28.1675C66.786 27.3074 66.3384 26.2936 66.1379 25.254C65.8985 24.012 65.6817 22.2334 66.248 21.461Z" fill="white" stroke="black"/>
<path d="M102.193 2.45853C101.921 2.44791 101.645 2.46644 101.384 2.51625C99.0245 2.96746 97.0504 4.82973 95.4887 6.65286C93.7723 8.65657 92.7872 11.2381 91.9919 13.7524C91.1393 16.4476 90.9393 19.3168 90.6818 22.1315C90.4792 24.3454 89.9404 26.6461 90.4987 28.7982C90.725 29.6706 91.0413 30.7841 91.8763 31.1262C92.1745 31.2484 92.5484 31.0489 92.8203 30.8761C93.3183 30.5596 93.7184 30.063 93.9474 29.5197C94.5165 28.1694 94.2588 26.6112 94.3905 25.1522C94.5442 23.4498 94.3012 20.4059 94.7951 20.0343C95.1168 19.7922 95.5709 19.7788 95.9703 19.7265C97.5912 19.5144 99.2398 19.6696 100.874 19.7265C103.109 19.8043 107.449 19.6667 107.569 20.1882C107.91 21.678 107.736 24.5508 108.185 26.6721C108.501 28.1622 108.237 30.3822 109.63 31.0012C110.222 31.2641 111.021 30.7379 111.412 30.2219C112.067 29.358 111.837 28.092 111.855 27.0088C111.898 24.4237 111.566 21.8283 111.056 19.2936C110.356 15.8201 109.183 12.5229 107.973 9.11559C107.212 6.9734 106.32 4.60369 104.486 3.25699C103.845 2.78627 103.01 2.49035 102.193 2.45853ZM101.143 7.78803C101.614 7.76269 102.098 7.87122 102.492 8.10549C103.293 8.58196 103.641 9.57585 104.149 10.3566C104.702 11.2067 105.271 12.0568 105.661 12.9925C105.94 13.6593 106.285 14.357 106.239 15.08C106.225 15.2983 104.896 15.208 104.226 15.2532C103.181 15.3235 102.14 15.3398 101.095 15.4167C100.029 15.4952 98.9394 15.4785 97.8969 15.7149C97.4299 15.8208 97.0237 16.1576 96.5483 16.2152C96.3009 16.2452 95.7344 16.3668 95.8066 16.1286C96.3765 14.2471 97.0716 13.0332 97.8199 11.5398C98.2777 10.6262 98.6578 9.64321 99.3323 8.87509C99.7037 8.45214 100.136 7.9976 100.681 7.85537C100.829 7.81679 100.986 7.79647 101.143 7.78803Z" fill="white" stroke="black"/>
<path d="M122.45 1.39638C120.662 2.13073 118.984 3.22944 117.606 4.58473C116.863 5.3159 116.313 6.23737 115.845 7.1684C115.165 8.51993 114.623 9.96692 114.358 11.4562C113.993 13.5134 114.011 15.6472 114.248 17.7229C114.506 19.9748 114.911 22.2793 115.9 24.3195C116.646 25.8602 117.788 27.2156 119.037 28.3874C120.328 29.5983 121.805 30.6782 123.441 31.3559C125.565 32.2358 127.914 32.5822 130.212 32.6752C132.186 32.7551 134.267 32.7471 136.102 32.0156C137.598 31.419 138.678 30.0826 139.955 29.1021C140.712 28.5212 141.876 28.235 142.212 27.343C142.659 26.1555 142.146 24.6949 141.496 23.6049C141.096 22.9336 140.111 21.8945 139.68 22.1207C139.248 22.3466 136.627 25.0975 134.726 25.9687C132.871 26.8183 130.759 27.3453 128.726 27.1781C126.926 27.03 125.23 26.1474 123.661 25.254C122.357 24.5113 120.962 23.7042 120.138 22.4505C119.21 21.0383 118.97 19.2402 118.817 17.558C118.656 15.7819 118.689 13.9164 119.258 12.2258C119.77 10.7031 120.666 9.25054 121.845 8.15789C123.157 6.94227 124.823 5.9738 126.579 5.62919C128.153 5.32015 129.868 5.55374 131.368 6.12394C132.805 6.67035 133.891 7.8819 135.111 8.81755C135.938 9.45218 136.697 10.1732 137.533 10.7965C137.977 11.128 138.356 11.7682 138.909 11.731C139.868 11.6666 140.769 10.7235 141.056 9.80703C141.755 7.57403 140.894 7.19547 140.175 6.17891C139.189 4.78392 137.374 4.20819 135.882 3.37536C134.678 2.70374 133.44 2.07252 132.138 1.61627C130.803 1.14802 129.423 0.703292 128.01 0.626778C126.421 0.54077 124.846 0.974747 123.276 1.23147C122.999 1.27676 122.71 1.2898 122.45 1.39638Z" fill="#F9CD24" stroke="black"/>
<path d="M121.349 4.58473C120.967 4.29951 120.404 4.84083 120.028 5.13445C119.543 5.51389 119.084 6.02315 118.927 6.61868C118.815 7.04736 118.69 7.75102 119.092 7.93799C119.826 8.27892 120.705 7.30697 121.129 6.61868C121.487 6.03786 121.896 4.99299 121.349 4.58473Z" fill="black" stroke="black"/>
<path d="M124.322 2.99055C124.113 3.22187 124.113 3.69375 124.322 3.92507C124.68 4.32178 125.403 4.23259 125.918 4.08998C126.449 3.94324 126.993 3.59218 127.239 3.10049C127.305 2.96938 127.349 2.75774 127.239 2.66072C126.907 2.36741 126.359 2.77535 125.918 2.82564C125.387 2.88626 124.68 2.59384 124.322 2.99055Z" fill="black" stroke="black"/>
<path d="M129.937 2.93558C129.626 2.96763 129.144 3.06563 129.111 3.37535C129.059 3.85357 129.766 4.12735 130.212 4.30987C130.671 4.49812 131.229 4.58244 131.698 4.41981C131.98 4.32202 132.406 4.10963 132.359 3.81512C132.295 3.41835 131.635 3.45943 131.258 3.32038C130.827 3.16187 130.393 2.88844 129.937 2.93558Z" fill="black" stroke="black"/>
<path d="M134.726 4.58472C134.487 4.59057 134.197 4.66138 134.065 4.85958C133.933 5.05778 133.957 5.36205 134.065 5.57421C134.364 6.15855 135.089 6.40633 135.661 6.72861C136.113 6.98272 136.619 7.54217 137.093 7.3333C137.395 7.19992 137.503 6.71928 137.423 6.39879C137.35 6.10939 136.974 6.00466 136.762 5.7941C136.532 5.56527 136.372 5.25861 136.102 5.07947C135.695 4.81043 135.213 4.57274 134.726 4.58472Z" fill="black" stroke="black"/>
<path d="M117.771 23.0552C117.335 23.6178 117.815 24.5531 118.212 25.1441C118.521 25.6043 119.069 25.8831 119.588 26.0786C119.865 26.1829 120.293 26.426 120.469 26.1886C120.923 25.5755 119.86 24.7891 119.533 24.0996C119.357 23.7293 119.336 23.2077 118.982 23.0002C118.634 22.7959 118.019 22.7361 117.771 23.0552Z" fill="black" stroke="black"/>
<path d="M123.441 27.288C123.123 27.2509 122.717 27.2678 122.505 27.5079C122.274 27.7705 122.227 28.2453 122.395 28.5523C122.691 29.0914 123.45 29.2254 124.047 29.3769C124.563 29.508 125.206 29.7353 125.643 29.4319C125.929 29.2335 126.053 28.7808 125.973 28.4424C125.896 28.1145 125.56 27.8766 125.258 27.7278C124.876 27.54 124.399 27.6871 123.992 27.5629C123.795 27.503 123.645 27.3118 123.441 27.288Z" fill="black" stroke="black"/>
<path d="M130.212 28.7722C129.83 28.8284 129.348 28.576 129.056 28.8272C128.843 29.01 128.75 29.4093 128.891 29.6518C129.095 30.0026 129.647 29.9654 130.047 30.0366C130.625 30.1396 131.296 30.3781 131.808 30.0916C132.066 29.9473 132.24 29.6173 132.249 29.322C132.256 29.0352 132.112 28.6963 131.863 28.5524C131.577 28.3865 131.199 28.5579 130.872 28.6073C130.648 28.6413 130.436 28.7392 130.212 28.7722Z" fill="black" stroke="black"/>
<path d="M136.102 26.9032C135.619 27.0466 135.165 27.3471 134.836 27.7278C134.664 27.9263 134.505 28.18 134.505 28.4424C134.505 28.7048 134.622 29.0042 134.836 29.157C135.121 29.3609 135.539 29.3426 135.882 29.267C136.195 29.1977 136.473 28.9918 136.707 28.7722C136.967 28.5286 137.179 28.2226 137.313 27.8927C137.438 27.5826 137.694 27.1583 137.478 26.9032C137.181 26.5537 136.541 26.7727 136.102 26.9032Z" fill="black" stroke="black"/>
<path d="M137.203 24.4295C137.475 25.379 137.796 25.8366 138.138 26.5184C138.459 27.1563 138.728 27.8383 139.184 28.3874C139.367 28.6077 139.561 28.8997 139.845 28.9371C140.105 28.9715 140.456 28.8481 140.561 28.6073C140.699 28.2882 140.377 27.933 140.23 27.6178C139.949 27.0139 139.462 26.5196 139.184 25.9137C139.008 25.529 138.976 25.0887 138.799 24.7043C138.61 24.2932 138.536 23.5668 138.083 23.5499C137.834 23.5407 137.826 23.9847 137.643 24.1546C137.516 24.2725 137.155 24.2633 137.203 24.4295Z" fill="black" stroke="black"/>
<path d="M136.817 10.1369C136.673 9.70795 137.275 9.3547 137.533 8.98247C137.704 8.73528 137.925 8.52354 138.083 8.26783C138.415 7.7309 138.604 7.1161 138.909 6.56372C139.077 6.26108 139.114 5.69699 139.46 5.68417C139.801 5.67155 139.829 6.26273 140.065 6.50874C140.146 6.59343 140.326 6.61223 140.34 6.72863C140.398 7.18308 139.785 7.45766 139.515 7.82806C139.29 8.13637 139.058 8.44024 138.854 8.76258C138.674 9.04695 138.525 9.3495 138.359 9.64213C138.14 10.0277 138.141 10.8218 137.698 10.7965C137.559 10.7886 137.634 10.5085 137.533 10.4117C137.349 10.2347 136.899 10.3788 136.817 10.1369Z" fill="black" stroke="black"/>
<path d="M145.548 3.55588C145.858 2.87981 146.464 2.3704 147.027 1.88444C147.549 1.43464 148.086 0.611908 148.759 0.757188C149.195 0.851273 149.344 1.45974 149.479 1.88444C149.885 3.15763 149.611 4.55346 149.674 5.88813C149.75 7.51245 149.844 9.13614 149.894 10.7615C149.934 12.0574 150.007 13.4057 149.959 14.6507C151.87 13.803 153.491 13.0828 155.22 12.2241C156.702 11.4887 158.112 10.6157 159.599 9.89182C161.226 9.1001 162.92 8.45462 164.562 7.69562C166.661 6.72561 168.765 5.76261 170.809 4.68314C171.935 4.08891 172.989 3.36525 174.118 2.77847C174.499 2.58047 174.881 2.08885 175.286 2.23428C175.799 2.41899 175.932 3.16921 175.986 3.71137C176.01 3.9506 175.823 4.17092 175.811 4.41104C175.792 4.80365 176.122 5.20828 175.986 5.57717C175.662 6.45628 174.628 6.87832 173.865 7.42353C172.34 8.51329 170.644 9.34348 168.999 10.2417C166.548 11.5802 164.102 12.9456 161.546 14.0704C159.102 15.1455 157.215 15.6269 154.033 16.8497C155.576 17.3832 155.972 17.7991 156.914 18.3268C158.638 19.2935 160.303 20.3605 161.974 21.417C163.782 22.5612 165.657 23.6189 167.345 24.9348C168.431 25.7813 169.711 26.5319 170.381 27.7335C170.847 28.5694 171.268 29.658 170.926 30.5516C170.624 31.3419 169.748 32.034 168.902 32.087C165.694 32.2883 163.275 28.9747 160.553 27.2671C159.284 26.4709 157.588 25.4965 156.836 24.7405C155.63 23.528 153.89 22.8491 152.535 21.7474C151.627 21.0096 151.08 20.3177 149.985 19.3374C149.867 21.0213 149.707 21.6549 149.635 22.8191C149.548 24.2282 149.588 25.6424 149.538 27.0533C149.514 27.7209 149.776 28.477 149.44 29.0551C149.054 29.7207 148.264 30.2797 147.494 30.299C146.867 30.3147 146.216 29.8819 145.859 29.3661C145.576 28.9559 145.732 28.3759 145.626 27.889C145.441 27.0475 145.04 26.2551 144.925 25.4013C144.609 23.0446 144.981 20.6462 144.984 18.2685C144.988 14.8931 144.921 11.4332 144.925 8.14264C144.927 6.59973 144.905 4.95881 145.548 3.55588Z" fill="white" stroke="black"/>
<path d="M2.17919 39.181C1.52725 39.1856 1.03689 39.9234 0.739024 40.5026C0.616602 40.7406 0.655732 41.0322 0.641712 41.2994C0.560242 42.8523 0.701314 44.409 0.71956 45.9639C0.753237 48.8337 0.75882 51.7038 0.777944 54.5738C0.784541 55.565 0.767187 56.5566 0.797396 57.5474C0.826465 58.5007 0.898682 59.4522 0.953089 60.4044C1.0027 61.2727 0.952828 62.1531 1.10878 63.0087C1.28149 63.9563 1.55063 64.899 1.9651 65.7686C2.11589 66.0849 2.21051 66.5508 2.54895 66.6432C2.93799 66.7493 3.33767 66.3863 3.63881 66.1184C3.98283 65.8124 4.25994 65.3969 4.37836 64.9523C4.67713 63.8305 4.25627 62.6337 4.22267 61.4734C4.20842 60.9812 4.21909 60.4884 4.20322 59.9963C4.17874 59.2377 4.02574 58.298 4.08644 57.7223C5.6419 57.5394 7.83481 57.527 9.7109 57.5085C10.7749 57.498 11.8391 57.5997 12.9026 57.5668C13.9564 57.5343 15.1622 57.2061 16.0554 57.3142C16.1535 58.2692 16.0683 59.7503 16.0944 60.968C16.1246 62.3807 16.0305 63.8061 16.2306 65.205C16.3632 66.132 16.0805 67.5319 16.9312 67.9259C17.5393 68.2075 18.2112 67.4611 18.7412 67.0513C18.9631 66.8796 19.3175 66.6787 19.2861 66.4099C18.7997 62.246 19.0686 58.2996 19.0136 54.2434C18.9764 51.4967 18.9089 48.7489 18.9747 46.0028C19.0102 44.5241 19.3385 43.0449 19.2083 41.5715C19.1403 40.8029 19.271 39.8173 18.6828 39.317C18.3957 39.0728 17.898 39.0848 17.554 39.2393C17.0309 39.4741 16.7004 40.062 16.5031 40.5997C16.2573 41.2696 16.4273 42.0246 16.4058 42.7376C16.353 44.4862 16.3519 46.236 16.3279 47.9852C16.3067 49.5335 16.2239 51.3243 16.2695 52.6303C13.5067 52.9684 12.4168 52.8873 10.4894 52.9995C8.27143 53.1287 5.42173 53.2773 3.83344 53.3494C3.32658 49.9401 3.93048 45.4517 3.52205 41.5326C3.47358 41.0675 3.49826 40.5605 3.26905 40.1527C3.03065 39.7286 2.6662 39.1775 2.17919 39.181Z" fill="white" stroke="black"/>
<path d="M30.9661 38.8462C30.2278 38.8609 29.508 38.7347 28.8565 39.082C27.959 39.5604 27.1442 40.2073 26.4482 40.9483C25.7195 41.7241 25.1722 42.663 24.6565 43.5938C24.0658 44.6597 23.5109 45.7586 23.1826 46.9319C22.8023 48.2909 22.7509 49.7297 22.6335 51.1359C22.4609 53.2033 22.3793 55.276 22.4023 57.3504C22.4216 59.0896 22.1994 60.9018 22.7106 62.5645C23.3219 64.5528 24.3792 66.5009 25.8991 67.9228C27.0679 69.0162 28.5971 69.9054 30.1859 70.1066C31.8472 70.3169 33.6064 69.7874 35.0891 69.0099C36.4059 68.3194 37.525 67.2122 38.3547 65.9796C39.0511 64.945 39.2373 63.6515 39.6841 62.4875C40.0428 61.5529 40.5434 60.6625 40.7726 59.6881C41.1004 58.2949 41.1333 56.8381 41.1579 55.4072C41.1897 53.5646 41.0904 51.7123 40.8497 49.8853C40.6837 48.6256 40.4388 47.3781 40.0694 46.1623C39.6469 44.7717 39.2702 43.3001 38.4318 42.1123C37.8917 41.3471 37.1251 40.7447 36.3318 40.246C35.5936 39.7819 34.746 39.5259 33.9235 39.2359C32.9555 38.8946 31.9925 38.8257 30.9661 38.8462ZM30.8794 43.5649C31.3025 43.5661 31.7267 43.6041 32.1317 43.6707C32.9455 43.8046 33.7068 44.2135 34.3859 44.6808C35.2924 45.3047 36.1684 46.0613 36.7267 47.0089C37.3973 48.1471 37.6678 49.5061 37.8153 50.8184C38.0269 52.7011 37.7779 54.6191 37.507 56.4942C37.2328 58.3917 37.0628 60.392 36.1776 62.0931C35.7454 62.9238 35.1287 63.7365 34.3088 64.1903C32.9506 64.9419 31.2365 65.2735 29.7138 64.9695C28.3301 64.6933 26.9644 63.862 26.14 62.7184C25.4376 61.7442 25.3957 60.4118 25.2826 59.2167C25.1872 58.2092 25.3763 57.1966 25.4367 56.1864C25.505 55.0456 25.5721 53.9005 25.6679 52.7617C25.7772 51.4641 25.7799 50.1463 26.0629 48.8752C26.2838 47.8831 26.559 46.8751 27.0744 45.9988C27.5306 45.2231 28.0537 44.3866 28.8565 43.9786C29.4663 43.6687 30.1744 43.563 30.8794 43.5649Z" fill="white" stroke="black"/>
<path d="M53.8434 39.7513C52.9483 39.7477 52.0412 39.8136 51.1558 39.8859C49.9631 39.9833 48.9374 40.6799 47.8048 40.2941C47.5707 40.2144 47.56 39.7574 47.3136 39.7361C46.6399 39.6782 45.9418 40.377 45.7337 41.006C45.4357 41.9069 46.0198 44.8532 46.0516 46.778C46.0898 49.0846 45.8783 51.388 45.8975 53.6948C45.925 57.0142 46.0462 60.3308 46.2828 63.6419C46.4111 65.4366 46.0025 66.9411 46.8415 69.0099C46.9906 69.3773 47.6292 69.2144 47.9879 69.0869C48.5273 68.895 48.9871 68.431 49.2498 67.9228C49.6823 67.086 49.5535 66.054 49.6062 65.1138C49.7048 63.3542 49.6044 61.5931 49.5292 59.8324C49.4905 58.9271 49.4627 58.1012 49.3365 57.1195C50.8125 57.1126 51.7493 58.6361 52.92 59.4476C54.5359 60.5676 56.1658 61.6825 57.6691 62.9493C59.1278 64.1785 60.1193 65.9949 61.7921 66.9127C62.6581 67.3879 63.7131 67.8516 64.6724 67.615C65.2435 67.4741 65.8799 67.0277 65.9921 66.451C66.25 65.1259 64.9819 63.9117 64.1811 62.8242C63.1419 61.413 61.6508 60.3916 60.3857 59.1782C59.2861 58.1237 58.0189 56.9299 57.0911 56.0229C59.0012 55.2923 61.8995 53.745 63.16 51.5784C64.0097 50.1179 64.0991 48.1973 63.738 46.5471C63.3465 44.7578 62.0735 43.3553 60.7214 42.1178C59.5616 41.0562 58.0099 40.4183 56.4829 40.0399C55.6206 39.8262 54.7385 39.7548 53.8434 39.7513ZM48.4406 43.7766C49.018 43.8434 49.8002 43.9472 50.4828 44.0171C51.2034 44.0908 51.9376 44.0804 52.6503 44.2095C53.4694 44.3578 54.2676 44.6234 55.0586 44.8829C55.8851 45.154 56.7222 45.4087 57.4957 45.8064C58.339 46.2399 59.2582 46.6566 59.8655 47.3841C60.1918 47.7749 60.6072 48.2882 60.4724 48.779C60.1895 49.8084 58.8349 50.2023 57.8714 50.6645C56.9478 51.1076 55.9054 51.2536 54.9044 51.4726C54.0779 51.6534 53.244 51.8287 52.3998 51.8862C51.3165 51.9601 49.3305 51.9906 49.1438 51.7997C48.8066 51.4546 48.8537 50.8728 48.7874 50.3951C48.6555 49.4437 48.7676 48.4781 48.72 47.5188C48.6581 46.2709 48.3609 44.5686 48.4406 43.7766Z" fill="white" stroke="black"/>
<path d="M89.2706 42.1935C89.0461 41.6214 88.4332 41.2702 87.9083 40.9496C87.1168 40.4661 86.2083 40.1688 85.3004 39.9778C84.2067 39.7478 83.0702 39.7497 81.953 39.7835C80.8559 39.8166 79.7306 39.8438 78.6834 40.1722C77.4208 40.5681 76.2856 41.3111 75.1803 42.038C74.4171 42.5399 73.6843 43.1016 73.0395 43.7483C72.3618 44.4279 71.6846 45.1479 71.249 46.0028C70.9192 46.65 70.7136 47.3773 70.6652 48.1018C70.6084 48.9502 70.6863 49.8443 71.0155 50.6284C71.4018 51.5486 71.9801 52.4997 72.8449 52.9995C73.7628 53.5301 74.948 53.276 75.9977 53.4271C77.5305 53.6478 79.0734 53.8168 80.5907 54.1268C81.864 54.3869 83.1704 54.5902 84.3663 55.0986C85.2078 55.4563 85.9876 55.9661 86.7017 56.5368C87.3106 57.0234 87.9562 57.5282 88.3365 58.2082C88.5973 58.6746 88.7507 59.2294 88.7257 59.763C88.68 60.7373 88.3987 61.7915 87.7526 62.5229C87.2344 63.1095 86.4156 63.4037 85.6507 63.5724C84.7762 63.7652 83.8544 63.5999 82.965 63.4946C81.8986 63.3685 80.8283 63.1808 79.8122 62.8338C78.8568 62.5076 77.9932 61.958 77.0876 61.5122C76.489 61.2176 75.9135 60.8732 75.2971 60.6182C74.7285 60.383 74.153 60.1336 73.5455 60.0351C73.1485 59.9708 72.6572 59.7896 72.3389 60.0351C71.8508 60.4117 71.8387 61.2081 71.8718 61.8232C71.915 62.6258 72.2877 63.405 72.7281 64.0777C73.2251 64.8369 73.9213 65.4751 74.6743 65.9824C75.5076 66.5438 76.4772 66.8919 77.4379 67.1874C78.7122 67.5794 80.0483 67.7438 81.3691 67.9259C82.3885 68.0664 83.4154 68.2242 84.4441 68.198C85.1907 68.179 85.9652 68.1533 86.6628 67.887C87.8594 67.4302 88.8982 66.6004 89.8545 65.7491C90.5415 65.1376 91.2874 64.4971 91.645 63.6501C92.1916 62.3552 92.1054 60.8556 92.0342 59.4521C91.9659 58.107 91.6774 56.7665 91.2557 55.4873C90.9999 54.711 90.706 53.9176 90.2048 53.2716C89.7083 52.6317 88.9937 52.1907 88.3365 51.7168C87.5191 51.1275 86.7168 50.462 85.7675 50.1231C84.831 49.7887 83.795 49.867 82.8093 49.7344C81.6801 49.5824 80.5555 49.3936 79.423 49.2679C78.5042 49.166 77.5587 49.2486 76.6594 49.0347C75.8156 48.834 74.6436 48.8328 74.2461 48.0629C74.0933 47.7668 74.2968 47.3698 74.4797 47.0912C75.1299 46.1008 76.2395 45.4388 77.3211 44.9533C78.637 44.3626 80.1245 44.1979 81.5638 44.0981C83.2754 43.9794 84.9874 44.4807 86.7017 44.4091C87.5138 44.3752 88.558 44.6505 89.1149 44.0592C89.5431 43.6047 89.4986 42.7745 89.2706 42.1935Z" fill="white" stroke="black"/>
<path d="M99.0794 40.211C98.7914 40.0015 98.8394 39.4101 98.4955 39.317C98.0755 39.2033 97.5951 39.5571 97.3278 39.9001C96.8527 40.5098 96.929 41.3978 96.8315 42.1643C96.7322 42.9457 96.7777 43.7387 96.744 44.5257C96.6264 47.2739 96.428 50.0188 96.3441 52.7683C96.3125 53.8044 96.2758 54.8417 96.3052 55.8779C96.3425 57.1884 96.4721 58.4947 96.5777 59.8014C96.6732 60.9835 96.7001 62.176 96.9044 63.3442C97.1098 64.519 97.0572 65.8769 97.8044 66.8073C98.2113 67.314 98.8312 67.679 99.5418 67.6946C100.669 67.7194 104.216 67.5884 106.554 67.6236C108.322 67.6501 110.826 67.8533 111.856 67.8368C112.373 67.8285 112.698 67.2298 113.16 66.9969C113.479 66.8361 113.946 66.9011 114.162 66.6173C114.762 65.8306 114.759 64.5996 114.438 63.6643C114.32 63.3205 114.043 63.1039 113.692 62.8688C112.94 62.3646 109.736 62.9817 107.759 62.9116C105.769 62.841 103.795 62.4824 101.804 62.4451C101.168 62.4332 100.376 62.9414 99.8968 62.5229C99.675 61.1258 99.6674 57.7744 99.5606 56.5168C101.099 56.3767 102.681 56.5071 104.242 56.5152C106.024 56.5245 107.85 56.968 109.588 56.5729C110.227 56.4276 111.066 56.2927 111.352 55.7033C111.588 55.2172 111.164 54.6372 111.014 54.1185C110.891 53.696 110.859 53.1993 110.554 52.881C110.103 52.4086 109.388 52.2506 108.749 52.115C107.213 51.7895 105.609 52.0368 104.039 52.0373C102.544 52.0379 100.848 52.0799 99.5551 52.1142C99.2908 51.9807 99.5418 50.6797 99.5398 49.9625C99.5362 48.6297 99.5283 47.2967 99.5465 45.964C99.5534 45.4585 99.4425 44.8519 99.5854 44.448C101.576 44.6373 104.879 45.5043 107.565 45.6919C108.419 45.7516 109.292 45.8084 110.134 45.653C110.84 45.5227 111.726 45.4878 112.158 44.9145C112.611 44.3124 112.416 43.4062 112.313 42.66C112.261 42.2784 112.193 41.8483 111.924 41.5716C111.604 41.2414 111.087 41.1761 110.64 41.0663C109.816 40.8639 108.957 40.8305 108.11 40.7942C106.904 40.7425 105.697 40.8906 104.49 40.8719C103.256 40.8528 102.011 40.8731 100.792 40.6776C100.208 40.5838 99.5577 40.559 99.0794 40.211Z" fill="white" stroke="black"/>
<path d="M121.22 66.4802C119.693 65.5611 120.398 62.9949 120.301 61.2164C120.181 59.0205 120.541 56.824 120.721 54.6321C120.948 51.8636 120.983 49.0591 121.554 46.3404C121.853 44.9182 122.034 43.3604 122.901 42.1935C123.366 41.5675 124.046 40.7854 124.823 40.8585C125.804 40.9508 126.256 42.2158 126.893 42.967C127.91 44.1671 128.758 45.5012 129.673 46.7802C130.317 47.6796 130.977 48.5685 131.582 49.4948C132.029 50.18 132.371 51.2372 132.851 51.5955C133.293 50.0405 134.585 47.734 135.609 45.8842C136.075 45.0414 136.528 44.176 137.147 43.4373C137.822 42.6315 138.55 41.8052 139.481 41.3163C140.141 40.9703 140.98 40.4982 141.657 40.8082C142.256 41.0827 142.381 41.9292 142.572 42.5594C143.088 44.263 142.97 46.0969 143.141 47.8686C143.292 49.4415 143.457 51.0142 143.544 52.592C143.648 54.4618 143.613 56.337 143.686 58.2082C143.743 59.6862 143.836 61.1627 143.919 62.6395C143.995 63.9706 144.409 66.0978 144.162 66.6318C144.008 66.9631 143.686 67.1958 143.393 67.4131C142.915 67.7661 142.344 68.5704 141.813 68.2361C141.192 67.8448 141.235 65.475 141.085 64.0749C140.826 61.6386 140.898 59.1783 140.796 56.7303C140.7 54.424 140.684 52.1126 140.494 49.8121C140.371 48.3219 140.527 46.0191 139.954 45.3589C139.159 45.7607 138.752 47.3605 138.236 48.4058C137.463 49.9688 136.965 51.6582 136.178 53.2139C135.496 54.5621 135.191 56.3718 133.877 57.1198C133.4 57.3915 132.729 57.3431 132.229 57.1151C131.229 56.659 130.736 55.4997 130.063 54.6321C129.136 53.4392 128.396 52.1113 127.494 50.9005C126.949 50.1697 126.381 49.455 125.778 48.7709C125.383 48.3228 124.555 47.2785 124.535 47.4799C124.462 48.2187 124.145 52.0143 123.986 54.2842C123.826 56.5602 123.831 58.8493 123.578 61.1169C123.428 62.4692 123.44 63.8881 122.919 65.1453C122.758 65.5333 122.522 65.9208 122.183 66.1684C121.91 66.3671 121.509 66.654 121.22 66.4802Z" fill="white" stroke="black"/>
<path d="M156.707 40.5923C156.235 40.6628 155.36 41.4217 155.05 41.6794C154.72 41.9542 153.565 43.6831 153.345 44.1229C153.125 44.5626 152.382 46.8165 151.996 47.5861C151.611 48.3557 150.69 50.446 150.58 51.2706C150.47 52.0951 150.004 53.8377 149.838 54.3874C149.673 54.9372 148.815 59.0889 148.76 59.8035C148.705 60.5182 148.586 63.7477 148.586 64.5173C148.586 65.2869 148.622 67.7909 148.952 68.2307C149.338 68.3406 150.96 67.1381 151.235 66.2586C151.511 65.379 151.572 62.7129 151.572 61.8333C151.572 60.9538 151.96 57.6791 152.131 57.5043C152.39 57.24 153.466 57.6005 154.347 57.6005C155.228 57.6005 155.782 57.6844 156.938 57.6294C158.094 57.5744 160.703 57.5548 160.753 57.716C160.822 57.9428 160.809 59.4955 160.859 60.1979C160.929 61.1964 160.97 62.2868 161.08 63.2763C161.19 64.2658 161.515 66.3149 161.735 67.2494C161.956 68.1839 162.648 68.3956 162.978 68.2306C163.308 68.0657 163.458 67.8582 164.009 67.5284C164.559 67.1986 164.186 66.1115 164.076 65.2869C163.966 64.4623 163.654 62.4586 163.489 61.3042C163.323 60.1498 163.216 58.0485 163.161 57.7737C163.106 57.4988 163.277 57.7004 163.45 57.3985C163.78 56.8213 163.539 55.6545 163.595 54.8299C163.65 54.0054 163.212 54.004 162.882 53.8391C162.551 53.6742 162.637 52.1858 162.362 51.2513C162.086 50.3168 161.342 46.9992 160.984 46.2296C160.656 45.5245 159.22 42.8956 158.614 42.0161C158.009 41.1365 157.517 40.6369 156.803 40.5923C156.776 40.5905 156.738 40.5876 156.707 40.5923ZM156.225 45.7294C156.244 45.7225 156.259 45.7236 156.273 45.7294C156.561 45.8443 157.017 46.514 157.294 46.9704C157.744 47.711 157.981 48.5572 158.316 49.3562C158.687 50.2428 159.106 51.1102 159.414 52.0209C159.551 52.4252 159.856 52.9547 159.741 53.2619C159.691 53.3974 158.793 53.3196 158.316 53.3196C157.361 53.3196 156.407 53.2677 155.455 53.2042C154.682 53.1527 153.116 53.2243 153.143 52.9829C153.173 52.7128 153.408 51.9205 153.576 51.3956C153.934 50.2805 154.273 49.1473 154.79 48.0959C155.175 47.3129 155.939 45.8338 156.225 45.7294Z" fill="white" stroke="black"/>
<path d="M170.836 68.5717C170.472 68.393 170.243 67.9857 170.093 67.6097C169.764 66.7886 169.856 65.8545 169.818 64.971C169.747 63.3598 169.806 61.7435 169.9 60.1335C169.986 58.6537 170.196 57.1836 170.34 55.7083C170.434 54.7556 170.504 53.8005 170.616 52.8498C170.811 51.1871 171.011 49.5231 171.304 47.8749C171.545 46.5178 171.889 45.1809 172.185 43.8345C172.285 43.3762 172.217 42.8436 172.487 42.4602C172.905 41.8679 173.611 41.2193 174.331 41.3058C174.802 41.3622 175.028 41.9516 175.322 42.3227C175.821 42.9529 176.239 43.647 176.616 44.3567C177.21 45.4771 177.574 46.7072 178.129 47.8474C178.668 48.9533 179.251 50.0399 179.891 51.0907C180.553 52.1784 181.352 53.1785 182.038 54.2516C182.642 55.1972 183.161 56.196 183.772 57.1376C184.295 57.9439 184.856 58.7256 185.423 59.5014C186.002 60.2929 186.531 61.132 187.212 61.8376C187.493 62.1281 187.778 62.7708 188.148 62.6073C188.356 60.6872 188.5 59.6241 188.616 58.1271C188.714 56.8557 188.766 55.581 188.808 54.3065C188.883 52.0628 188.806 49.8147 188.919 47.5725C188.968 46.59 188.746 45.5213 189.166 44.6315C189.396 44.1452 189.894 43.8304 190.322 43.5046C190.525 43.3504 190.73 43.0872 190.983 43.1198C191.369 43.1697 191.63 43.5988 191.808 43.9444C192.089 44.4895 192.066 45.1471 192.111 45.7585C192.221 47.2481 192.07 48.7456 192.029 50.2386C191.988 51.7142 191.948 53.1902 191.864 54.6639C191.782 56.095 191.601 57.5198 191.533 58.9516C191.485 59.9768 191.472 61.0038 191.478 62.03C191.484 62.9375 191.562 63.8437 191.561 64.7511C191.56 65.6128 191.525 67.0575 191.478 67.3348C191.379 67.9291 190.817 68.2814 190.35 68.5992C189.889 68.9124 189.324 69.3002 188.781 69.1764C187.623 68.9125 187.083 67.5145 186.304 66.6202C185.463 65.6553 184.675 64.6425 183.937 63.5967C183.205 62.5599 182.664 61.3939 181.9 60.3809C181.361 59.6657 180.644 59.0948 180.111 58.3744C179.27 57.2369 178.607 55.977 177.909 54.7463C177.444 53.926 177.014 53.0864 176.588 52.2451C176.313 51.7001 176.047 51.15 175.79 50.596C175.419 49.7957 175.09 48.5328 174.717 48.1772C174.359 48.6024 174.025 50.5592 173.808 51.7779C173.624 52.8119 173.551 53.8635 173.478 54.9112C173.422 55.716 173.419 56.5236 173.396 57.33C173.373 58.1086 173.365 58.8877 173.34 59.6663C173.318 60.3811 173.267 61.0951 173.258 61.8102C173.249 62.5065 173.281 63.2027 173.285 63.8991C173.289 64.458 173.388 65.0263 173.285 65.5757C173.15 66.2999 172.884 67.0159 172.487 67.6372C172.309 67.9158 172.087 68.1891 171.799 68.3518C171.512 68.5138 171.163 68.5348 170.836 68.5717C170.836 68.5717 170.836 68.5717 170.836 68.5717Z" fill="white"/>
<path d="M170.836 68.5717C170.472 68.393 170.243 67.9857 170.093 67.6097C169.764 66.7886 169.856 65.8545 169.818 64.971C169.747 63.3598 169.806 61.7435 169.9 60.1335C169.986 58.6537 170.196 57.1836 170.34 55.7083C170.434 54.7556 170.504 53.8005 170.616 52.8498C170.811 51.1871 171.011 49.5231 171.304 47.8749C171.545 46.5178 171.889 45.1809 172.185 43.8345C172.285 43.3762 172.217 42.8436 172.487 42.4602C172.905 41.8679 173.611 41.2193 174.331 41.3058C174.802 41.3622 175.028 41.9516 175.322 42.3227C175.821 42.9529 176.239 43.647 176.616 44.3567C177.21 45.4771 177.574 46.7072 178.129 47.8474C178.668 48.9533 179.251 50.0399 179.891 51.0907C180.553 52.1784 181.352 53.1785 182.038 54.2516C182.642 55.1972 183.161 56.196 183.772 57.1376C184.295 57.9439 184.856 58.7256 185.423 59.5014C186.002 60.2929 186.531 61.132 187.212 61.8376C187.493 62.1281 187.778 62.7708 188.148 62.6073C188.356 60.6872 188.5 59.6241 188.616 58.1271C188.714 56.8557 188.766 55.581 188.808 54.3065C188.883 52.0628 188.806 49.8147 188.919 47.5725C188.968 46.59 188.746 45.5213 189.166 44.6315C189.396 44.1452 189.894 43.8304 190.322 43.5046C190.525 43.3504 190.73 43.0872 190.983 43.1198C191.369 43.1697 191.63 43.5988 191.808 43.9444C192.089 44.4895 192.066 45.1471 192.111 45.7585C192.221 47.2481 192.07 48.7456 192.029 50.2386C191.988 51.7142 191.948 53.1902 191.864 54.6639C191.782 56.095 191.601 57.5198 191.533 58.9516C191.485 59.9768 191.472 61.0038 191.478 62.03C191.484 62.9375 191.562 63.8437 191.561 64.7511C191.56 65.6128 191.525 67.0575 191.478 67.3348C191.379 67.9291 190.817 68.2814 190.35 68.5992C189.889 68.9124 189.324 69.3002 188.781 69.1764C187.623 68.9125 187.083 67.5145 186.304 66.6202C185.463 65.6553 184.675 64.6425 183.937 63.5967C183.205 62.5599 182.664 61.3939 181.9 60.3809C181.361 59.6657 180.644 59.0948 180.111 58.3744C179.27 57.2369 178.607 55.977 177.909 54.7463C177.444 53.926 177.014 53.0864 176.588 52.2451C176.313 51.7001 176.047 51.15 175.79 50.596C175.419 49.7957 175.09 48.5328 174.717 48.1772C174.359 48.6024 174.025 50.5592 173.808 51.7779C173.624 52.8119 173.551 53.8635 173.478 54.9112C173.422 55.716 173.419 56.5236 173.396 57.33C173.373 58.1086 173.365 58.8877 173.34 59.6663C173.318 60.3811 173.267 61.0951 173.258 61.8102C173.249 62.5065 173.281 63.2027 173.285 63.8991C173.289 64.458 173.388 65.0263 173.285 65.5757C173.15 66.2999 172.884 67.0159 172.487 67.6372C172.309 67.9158 172.087 68.1891 171.799 68.3518C171.512 68.5138 171.163 68.5348 170.836 68.5717ZM170.836 68.5717C170.836 68.5717 170.836 68.5717 170.836 68.5717Z" stroke="black"/>
</svg>
